<svg width="20" height="20" viewBox="0 0 20 20" fill="none" xmlns="http://www.w3.org/2000/svg">
<path d="M18.3334 17.5C17.4084 17.5 16.8917 17.1917 16.5167 16.9667C16.2084 16.7833 16.0167 16.6667 15.5584 16.6667C15.0917 16.6667 14.9084 16.775 14.6001 16.9667C14.2167 17.1917 13.7084 17.5 12.7834 17.5C11.8584 17.5 11.3417 17.1917 10.9667 16.9667C10.6584 16.7833 10.4667 16.6667 10.0084 16.6667C9.54175 16.6667 9.35841 16.775 9.05008 16.9667C8.66675 17.1917 8.15008 17.5 7.22508 17.5C6.30008 17.5 5.78341 17.1917 5.40841 16.9667C5.10008 16.775 4.90842 16.6667 4.45008 16.6667C3.99175 16.6667 3.80008 16.775 3.49175 16.9667C3.10841 17.1917 2.59175 17.5 1.66675 17.5V15.8333C2.13341 15.8333 2.31675 15.725 2.62508 15.5333C3.00841 15.3083 3.52508 15 4.45008 15C5.37508 15 5.89175 15.3083 6.26675 15.5333C6.57508 15.725 6.75842 15.8333 7.22508 15.8333C7.69175 15.8333 7.87508 15.725 8.18341 15.5333C8.56675 15.3083 9.08342 15 10.0084 15C10.9334 15 11.4501 15.3083 11.8251 15.5333C12.1334 15.7167 12.3251 15.8333 12.7834 15.8333C13.2417 15.8333 13.4334 15.725 13.7417 15.5333C14.1167 15.3083 14.6334 15 15.5584 15C16.4834 15 17.0001 15.3083 17.3751 15.5333C17.6834 15.725 17.8667 15.8333 18.3334 15.8333V17.5ZM18.3334 13.75C17.4084 13.75 16.8917 13.4417 16.5167 13.2167C16.2084 13.0333 16.0167 12.9167 15.5584 12.9167C15.0917 12.9167 14.9084 13.025 14.6001 13.2167C14.2251 13.4417 13.7084 13.75 12.7834 13.75C11.8584 13.75 11.3417 13.4417 10.9667 13.2167C10.6584 13.0333 10.4667 12.9167 10.0084 12.9167C9.54175 12.9167 9.35841 13.025 9.05008 13.2167C8.67508 13.4417 8.15842 13.75 7.23342 13.75C6.30842 13.75 5.79175 13.4417 5.41675 13.2167C5.10841 13.0333 4.91675 12.9167 4.45841 12.9167C4.00008 12.9167 3.80841 13.025 3.50008 13.2167C3.10841 13.4417 2.59175 13.75 1.66675 13.75V12.0833C2.13341 12.0833 2.31675 11.975 2.62508 11.7833C3.00008 11.5583 3.51675 11.25 4.44175 11.25C5.36675 11.25 5.88342 11.5583 6.25842 11.7833C6.56675 11.9667 6.75841 12.0833 7.21675 12.0833C7.68341 12.0833 7.86675 11.975 8.17508 11.7833C8.55008 11.5583 9.06675 11.25 9.99175 11.25C10.9167 11.25 11.4334 11.5583 11.8084 11.7833C12.1167 11.9667 12.3084 12.0833 12.7667 12.0833C13.2251 12.0833 13.4167 11.975 13.7251 11.7833C14.1001 11.5583 14.6167 11.25 15.5417 11.25C16.4667 11.25 16.9834 11.5583 17.3584 11.7833C17.6667 11.9667 17.8584 12.0833 18.3167 12.0833V13.75H18.3334ZM7.22508 10C7.69175 10 7.87508 9.89168 8.18341 9.68001C8.56675 9.47501 9.08342 9.16668 10.0084 9.16668C10.9334 9.16668 11.4501 9.47501 11.8251 9.68001C12.1334 9.88334 12.3251 10 12.7834 10C13.2417 10 13.4334 9.89168 13.7417 9.68001C13.8417 9.64168 13.9584 9.57501 14.0834 9.50834L8.73341 4.16668C7.44175 2.87501 6.25008 2.49168 4.16675 2.50001V4.58334C5.68341 4.57501 6.57508 4.90834 7.50008 5.83334L8.33342 6.66668L5.62508 9.37501C5.88341 9.47501 6.09175 9.60001 6.26675 9.68001C6.57508 9.89168 6.75842 10 7.22508 10Z" fill="#555555"/>
<path d="M13.7501 6.66667C14.9007 6.66667 15.8334 5.73393 15.8334 4.58333C15.8334 3.43274 14.9007 2.5 13.7501 2.5C12.5995 2.5 11.6667 3.43274 11.6667 4.58333C11.6667 5.73393 12.5995 6.66667 13.7501 6.66667Z" fill="#555555"/>
</svg>