<svg width="14" height="14" viewBox="0 0 14 14" fill="none" xmlns="http://www.w3.org/2000/svg">
<path d="M1.08242 7.50469L0 8.58711L3.78848 10.2107L5.41289 14L6.49531 12.9176L5.9541 10.2107L8.49022 7.67463L11.2537 13.5721L12.2787 12.5471L11.3678 4.79786L13.5326 2.63225C13.6788 2.49102 13.7955 2.32208 13.8757 2.13529C13.9559 1.9485 13.9982 1.7476 13.9999 1.54431C14.0017 1.34103 13.963 1.13942 13.886 0.951269C13.809 0.763114 13.6953 0.592174 13.5516 0.448423C13.4078 0.304672 13.2369 0.19099 13.0487 0.114009C12.8606 0.0370287 12.659 -0.0017087 12.4557 5.78057e-05C12.2524 0.00182431 12.0515 0.0440594 11.8647 0.124298C11.6779 0.204537 11.509 0.321172 11.3678 0.4674L9.14549 2.68966L1.39628 1.77794L0.427917 2.74707L6.27944 5.55648L3.78925 8.04667L1.08242 7.50469Z" fill="#333333"/>
</svg>
