<svg width="20" height="20" viewBox="0 0 20 20" fill="none" xmlns="http://www.w3.org/2000/svg">
<g clip-path="url(#clip0_2785_17599)">
<path d="M0.833008 3.33334V8.33334H5.83301" stroke="#DEDEDE" stroke-width="2" stroke-linecap="round" stroke-linejoin="round"/>
<path d="M19.167 16.6667V11.6667H14.167" stroke="#DEDEDE" stroke-width="2" stroke-linecap="round" stroke-linejoin="round"/>
<path d="M17.0747 7.50001C16.652 6.30567 15.9337 5.23785 14.9868 4.39619C14.0398 3.55454 12.8951 2.96648 11.6594 2.68689C10.4238 2.4073 9.13738 2.4453 7.92035 2.79732C6.70332 3.14935 5.5953 3.80394 4.69967 4.70001L0.833008 8.33335M19.1663 11.6667L15.2997 15.3C14.4041 16.1961 13.296 16.8507 12.079 17.2027C10.862 17.5547 9.5756 17.5927 8.33991 17.3131C7.10423 17.0335 5.95951 16.4455 5.01256 15.6038C4.06562 14.7622 3.34731 13.6944 2.92467 12.5" stroke="#DEDEDE" stroke-width="2" stroke-linecap="round" stroke-linejoin="round"/>
</g>
<defs>
<clipPath id="clip0_2785_17599">
<rect width="20" height="20" fill="white"/>
</clipPath>
</defs>
</svg>
