<svg width="13" height="12" viewBox="0 0 13 12" fill="none" xmlns="http://www.w3.org/2000/svg">
<path d="M11.8514 1.97704C11.7697 1.89632 11.6715 1.8322 11.5628 1.78858C11.4541 1.74497 11.3372 1.72278 11.2191 1.72336H10.3134V1.08203C10.3155 0.941384 10.2871 0.801822 10.23 0.671958C10.1729 0.542094 10.0883 0.424683 9.98148 0.326967C9.87822 0.225919 9.75419 0.145967 9.61704 0.0920404C9.47989 0.0381142 9.33253 0.0113563 9.18405 0.0134162H8.73278C8.58423 0.011453 8.43684 0.0383285 8.29969 0.0923847C8.16254 0.146441 8.03854 0.226531 7.93534 0.327716C7.82845 0.425404 7.74384 0.542811 7.68675 0.67268C7.62965 0.80255 7.60129 0.942126 7.60341 1.08278V1.7241H4.89341V1.08203C4.89548 0.941384 4.8671 0.801822 4.81001 0.671958C4.75292 0.542094 4.66833 0.424683 4.56147 0.326967C4.4583 0.226011 4.3344 0.146113 4.19739 0.0921898C4.06039 0.0382666 3.91318 0.0114589 3.76483 0.0134162H3.31356C3.16502 0.011453 3.01762 0.0383285 2.88047 0.0923847C2.74332 0.146441 2.61932 0.226531 2.51612 0.327716C2.40926 0.425432 2.32468 0.542843 2.26759 0.672706C2.2105 0.80257 2.18212 0.942132 2.18419 1.08278V1.7241H1.28086C1.1628 1.72352 1.04586 1.74572 0.937156 1.78933C0.828455 1.83295 0.730274 1.89707 0.648601 1.97779C0.563353 2.05512 0.495633 2.14809 0.449571 2.25101C0.403509 2.35394 0.38007 2.46467 0.380682 2.57645V11.1306C0.383729 11.3562 0.479427 11.5717 0.647476 11.7315C0.815526 11.8913 1.04271 11.9829 1.28086 11.9867H11.216C11.4545 11.9836 11.6824 11.8925 11.8511 11.7328C12.0198 11.573 12.116 11.3573 12.1193 11.1314V2.5787C12.1203 2.46641 12.0971 2.35511 12.051 2.25164C12.005 2.14817 11.937 2.05472 11.8514 1.97704ZM3.31593 11.1306H1.28086V9.20668H3.31277L3.31593 11.1306ZM3.31593 8.77864H1.28086V6.64065H3.31277L3.31593 8.77864ZM3.31593 6.2126H1.28086V4.28864H3.31277L3.31593 6.2126ZM3.15786 3.15566C3.13648 3.13637 3.11949 3.11315 3.10794 3.08741C3.09638 3.06167 3.09051 3.03396 3.09069 3.006V1.08203C3.09151 1.02551 3.11558 0.971525 3.15779 0.931554C3.20001 0.891584 3.25703 0.868786 3.31672 0.868012H3.76483C3.82452 0.868786 3.88154 0.891584 3.92375 0.931554C3.96597 0.971525 3.99004 1.02551 3.99086 1.08203V3.00675C3.99004 3.06327 3.96597 3.11726 3.92375 3.15723C3.88154 3.1972 3.82452 3.21999 3.76483 3.22077H3.31356C3.28371 3.221 3.25413 3.2154 3.22666 3.20433C3.19919 3.19326 3.17443 3.17695 3.15391 3.15641L3.15786 3.15566ZM6.02593 11.1299H3.76483V9.20668H6.02277L6.02593 11.1299ZM6.02593 8.77789H3.76483V6.64065H6.02277L6.02593 8.77789ZM6.02593 6.21185H3.76483V4.28864H6.02277L6.02593 6.21185ZM8.73594 11.1291H6.47405V9.20668H8.73199L8.73594 11.1291ZM8.73594 8.77714H6.47405V6.64065H8.73199L8.73594 8.77714ZM8.73594 6.21111H6.47405V4.28864H8.73199L8.73594 6.21111ZM8.57787 3.15417C8.5561 3.13543 8.53856 3.11271 8.52634 3.08737C8.51411 3.06203 8.50745 3.0346 8.50675 3.00675V1.08203C8.50736 1.02545 8.53137 0.971355 8.57363 0.931344C8.61589 0.891333 8.67302 0.868596 8.73278 0.868012H9.18405C9.2438 0.868596 9.30094 0.891333 9.34319 0.931344C9.38545 0.971355 9.40946 1.02545 9.41008 1.08203V3.00675C9.40946 3.06333 9.38545 3.11743 9.34319 3.15744C9.30094 3.19745 9.2438 3.22018 9.18405 3.22077H8.73278C8.70292 3.22104 8.67332 3.21547 8.64585 3.20439C8.61838 3.19332 8.59362 3.17698 8.57313 3.15641L8.57787 3.15417ZM11.2207 11.1284H9.18405V9.20668H11.216L11.2207 11.1284ZM11.2207 8.77639H9.18405V6.64065H11.216L11.2207 8.77639ZM11.2207 6.21036H9.18405V4.28864H11.216L11.2207 6.21036Z" fill="#333333"/>
</svg>
