<svg width="11" height="14" viewBox="0 0 11 14" fill="none" xmlns="http://www.w3.org/2000/svg">
<path d="M2.2 11.1443C2.2 11.1443 0 5.57214 0 2.78607C0 0 1.46667 0 1.46667 0H2.2C2.2 0 2.93333 0 2.93333 0.696517C2.93333 1.39303 2.2 1.39303 2.2 2.78607C2.2 4.1791 4.4 5.57214 4.4 7.66169C4.4 9.75124 2.2 11.1443 2.2 11.1443ZM5.86667 10.4478C5.13333 10.4478 2.93333 12.1891 2.93333 12.1891C2.71333 12.3284 2.78667 12.5373 2.93333 12.7463C2.93333 12.7463 3.66667 14 5.13333 14H9.53333C10.34 14 11 13.3731 11 12.607V11.9104C11 11.1443 10.34 10.5174 9.53333 10.5174H5.86667V10.4478Z" fill="#333333"/>
</svg>
