<svg width="15" height="20" viewBox="0 0 15 20" fill="none" xmlns="http://www.w3.org/2000/svg">
<path d="M14.569 9.178C14.7022 9.26974 14.8112 9.39249 14.8864 9.53569C14.9617 9.67888 15.001 9.83823 15.001 10C15.001 10.1618 14.9617 10.3211 14.8864 10.4643C14.8112 10.6075 14.7022 10.7303 14.569 10.822L1.569 19.822C1.41906 19.9262 1.24343 19.9873 1.06121 19.9986C0.87898 20.01 0.697123 19.9712 0.535394 19.8865C0.373665 19.8018 0.238248 19.6743 0.143858 19.518C0.049468 19.3617 -0.000286344 19.1826 1.23965e-06 19L1.23965e-06 0.999998C0.000753649 0.817841 0.0511479 0.639336 0.145764 0.483678C0.24038 0.328021 0.375639 0.201101 0.536994 0.116566C0.698349 0.0250324 0.879696 -0.00691693 1.06153 0.00390703C1.24337 0.014731 1.41881 0.0749187 1.569 0.177998L14.569 9.178Z" fill="#DEDEDE"/>
</svg>
