<svg width="18" height="17" viewBox="0 0 18 17" fill="none" xmlns="http://www.w3.org/2000/svg">
<path d="M15.677 16.607L9.962 10.891C7.41967 12.6985 3.91644 12.2564 1.90287 9.87395C-0.110692 7.49153 0.0371585 3.96361 2.243 1.75802C4.44826 -0.448534 7.97653 -0.597024 10.3594 1.41644C12.7423 3.42989 13.1846 6.93347 11.377 9.47602L17.092 15.192L15.678 16.606L15.677 16.607ZM6.485 2.00001C4.5887 1.99958 2.95269 3.3307 2.56747 5.18745C2.18226 7.04421 3.15371 8.91629 4.89368 9.67026C6.63364 10.4242 8.6639 9.85285 9.75524 8.30207C10.8466 6.75129 10.6991 4.64734 9.402 3.26402L10.007 3.86402L9.325 3.18402L9.313 3.17202C8.56479 2.4192 7.54639 1.99715 6.485 2.00001Z" fill="#333333"/>
</svg>
