<svg width="24" height="16" viewBox="0 0 24 16" fill="none" xmlns="http://www.w3.org/2000/svg">
<rect x="3.05176e-05" width="24" height="16" fill="#EC1C24"/>
<path d="M4.86412 2.49609L5.66625 4.12509L7.46438 4.38572L6.16425 5.65134L6.47062 7.44384L4.86412 6.59822L3.25725 7.44384L3.564 5.65134L2.265 4.38572L4.06012 4.12509L4.86412 2.49609Z" fill="#F9CB38"/>
<path d="M7.69 1.1228L7.91237 1.57468L8.41262 1.64705L8.0515 1.99918L8.13587 2.49605L7.69 2.2613L7.2445 2.49605L7.32887 1.99918L6.96812 1.64705L7.46725 1.57468L7.69 1.1228Z" fill="#F9CB38"/>
<path d="M9.13428 2.74805L9.35703 3.19955L9.85503 3.2723L9.49541 3.62517L9.58016 4.1213L9.13428 3.88692L8.68878 4.1213L8.77316 3.62517L8.41278 3.2723L8.91116 3.19955L9.13428 2.74805Z" fill="#F9CB38"/>
<path d="M9.13428 5.35657L9.35703 5.80919L9.85503 5.88157L9.49541 6.23369L9.58016 6.73057L9.13428 6.49657L8.68878 6.73057L8.77316 6.23369L8.41278 5.88157L8.91116 5.80919L9.13428 5.35657Z" fill="#F9CB38"/>
<path d="M7.69 7.18884L7.91237 7.64072L8.41262 7.71272L8.0515 8.06447L8.13587 8.56209L7.69 8.32884L7.2445 8.56209L7.32887 8.06447L6.96812 7.71272L7.46725 7.64072L7.69 7.18884Z" fill="#F9CB38"/>
</svg>
