<svg width="24" height="16" viewBox="0 0 24 16" fill="none" xmlns="http://www.w3.org/2000/svg">
<rect x="-0.0390625" width="24" height="1.23077" fill="#EC1C24"/>
<rect x="-0.0390625" y="1.23071" width="24" height="1.23077" fill="white"/>
<rect x="-0.0390625" y="2.46155" width="24" height="1.23077" fill="#EC1C24"/>
<rect x="-0.0390625" y="3.69226" width="24" height="1.23077" fill="white"/>
<rect x="-0.0390625" y="4.9231" width="24" height="1.23076" fill="#EC1C24"/>
<rect x="-0.0390625" y="6.15381" width="24" height="1.23077" fill="white"/>
<rect x="-0.0390625" y="7.38464" width="24" height="1.23077" fill="#EC1C24"/>
<rect x="-0.0390625" y="8.61536" width="24" height="1.23077" fill="white"/>
<rect x="-0.0390625" y="9.84619" width="24" height="1.23077" fill="#EC1C24"/>
<rect x="-0.0390625" y="11.0769" width="24" height="1.23076" fill="white"/>
<rect x="-0.0390625" y="12.3077" width="24" height="1.23076" fill="#EC1C24"/>
<rect x="-0.0390625" y="13.5385" width="24" height="1.23076" fill="white"/>
<rect x="-0.0390625" y="14.7693" width="24" height="1.23076" fill="#EC1C24"/>
<rect width="11" height="8.60987" fill="#176496"/>
<path d="M1.14399 1.65925L1.34799 1.5025L1.55162 1.65925L1.47249 1.40725L1.67537 1.25312H1.42487L1.34724 1L1.26999 1.25312H1.01987L1.22349 1.40725L1.14399 1.65925Z" fill="white"/>
<path d="M2.49175 1.65925L2.69575 1.5025L2.89937 1.65925L2.82062 1.40725L3.02312 1.25312H2.773L2.69537 1L2.61812 1.25312H2.36725L2.57087 1.40725L2.49175 1.65925Z" fill="white"/>
<path d="M3.97861 1.65925L4.18224 1.5025L4.38624 1.65925L4.30711 1.40725L4.50961 1.25312H4.26099L4.18224 1L4.10461 1.25312H3.85599L4.05736 1.40725L3.97861 1.65925Z" fill="white"/>
<path d="M5.45463 1.65925L5.65826 1.5025L5.86226 1.65925L5.78351 1.40725L5.98601 1.25312H5.73476L5.65826 1L5.58101 1.25312H5.33051L5.53376 1.40725L5.45463 1.65925Z" fill="white"/>
<path d="M6.93588 1.65925L7.13988 1.5025L7.34351 1.65925L7.26476 1.40725L7.46763 1.25312H7.21676L7.13951 1L7.06226 1.25312H6.81213L7.01463 1.40725L6.93588 1.65925Z" fill="white"/>
<path d="M1.86137 2.31744L2.06499 2.16106L2.26862 2.31744L2.19024 2.06581L2.39274 1.91169H2.14224L2.06462 1.65894L1.98849 1.91169H1.73724L1.94012 2.06581L1.86137 2.31744Z" fill="white"/>
<path d="M3.20951 2.31744L3.41314 2.16106L3.61676 2.31744L3.53801 2.06581L3.74051 1.91169H3.48851L3.41314 1.65894L3.33551 1.91169H3.08539L3.28826 2.06581L3.20951 2.31744Z" fill="white"/>
<path d="M4.69638 2.31744L4.89963 2.16106L5.10325 2.31744L5.0245 2.06581L5.22738 1.91169H4.97725L4.89963 1.65894L4.822 1.91169H4.5715L4.77438 2.06581L4.69638 2.31744Z" fill="white"/>
<path d="M6.17163 2.31744L6.37563 2.16106L6.57963 2.31744L6.49976 2.06581L6.70301 1.91169H6.45288L6.37526 1.65894L6.29838 1.91169H6.04788L6.25076 2.06581L6.17163 2.31744Z" fill="white"/>
<path d="M7.65474 2.31744L7.85686 2.16106L8.06049 2.31744L7.98099 2.06581L8.18424 1.91169H7.93449L7.85649 1.65894L7.77961 1.91169H7.52911L7.73199 2.06581L7.65474 2.31744Z" fill="white"/>
<path d="M8.48987 1.65925L8.69349 1.5025L8.89749 1.65925L8.81837 1.40725L9.02087 1.25312H8.77224L8.69312 1L8.61587 1.25312H8.36349L8.56862 1.40725L8.48987 1.65925Z" fill="white"/>
<path d="M1.12412 6.92578L1.32812 6.77091L1.53175 6.92578L1.453 6.67603L1.6555 6.52153L1.40537 6.52228L1.32737 6.26953L1.25087 6.52228L1 6.52153L1.20287 6.67603L1.12412 6.92578Z" fill="white"/>
<path d="M2.47226 6.92578L2.67589 6.77091L2.87989 6.92578L2.80076 6.67603L3.00326 6.52153L2.75351 6.52228L2.67551 6.26953L2.59864 6.52228L2.34851 6.52153L2.55101 6.67603L2.47226 6.92578Z" fill="white"/>
<path d="M3.95912 6.92578L4.16274 6.77091L4.36674 6.92578L4.28762 6.67603L4.49012 6.52153L4.23849 6.52228L4.16237 6.26953L4.08512 6.52228L3.83499 6.52153L4.03787 6.67603L3.95912 6.92578Z" fill="white"/>
<path d="M5.43513 6.92578L5.63875 6.77091L5.84238 6.92578L5.76475 6.67603L5.96613 6.52153L5.71563 6.52228L5.63838 6.26953L5.56113 6.52228L5.311 6.52153L5.5135 6.67603L5.43513 6.92578Z" fill="white"/>
<path d="M6.91599 6.92578L7.11999 6.77091L7.32399 6.92578L7.24599 6.67603L7.44736 6.52153L7.19724 6.52228L7.11961 6.26953L7.04274 6.52228L6.79224 6.52153L6.99474 6.67603L6.91599 6.92578Z" fill="white"/>
<path d="M8.46801 6.92578L8.67363 6.77091L8.87763 6.92578L8.79851 6.67603L9.00138 6.52153L8.74976 6.52228L8.67326 6.26953L8.59601 6.52228L8.34476 6.52153L8.54876 6.67603L8.46801 6.92578Z" fill="white"/>
<path d="M1.14399 2.97626L1.34799 2.81951L1.55162 2.97626L1.47249 2.72426L1.67537 2.57013L1.42487 2.57088L1.34724 2.31738L1.26999 2.57088L1.01987 2.57013L1.22349 2.72426L1.14399 2.97626Z" fill="white"/>
<path d="M2.49175 2.97626L2.69575 2.81951L2.89937 2.97626L2.82062 2.72426L3.02312 2.57013L2.773 2.57088L2.69537 2.31738L2.61812 2.57088L2.36725 2.57013L2.57087 2.72426L2.49175 2.97626Z" fill="white"/>
<path d="M3.97861 2.97626L4.18224 2.81951L4.38624 2.97626L4.30711 2.72426L4.50961 2.57013L4.26099 2.57088L4.18224 2.31738L4.10461 2.57088L3.85599 2.57013L4.05736 2.72426L3.97861 2.97626Z" fill="white"/>
<path d="M5.45463 2.97626L5.65826 2.81951L5.86226 2.97626L5.78351 2.72426L5.98601 2.57013L5.73476 2.57088L5.65826 2.31738L5.58101 2.57088L5.33051 2.57013L5.53376 2.72426L5.45463 2.97626Z" fill="white"/>
<path d="M6.93588 2.97626L7.13988 2.81951L7.34351 2.97626L7.26476 2.72426L7.46763 2.57013L7.21676 2.57088L7.13951 2.31738L7.06226 2.57088L6.81213 2.57013L7.01463 2.72426L6.93588 2.97626Z" fill="white"/>
<path d="M1.86137 3.6347L2.06499 3.47832L2.26862 3.6347L2.19024 3.38307L2.39274 3.2282H2.14224L2.06462 2.9762L1.98849 3.2282H1.73724L1.94012 3.38307L1.86137 3.6347Z" fill="white"/>
<path d="M3.20951 3.6347L3.41314 3.47832L3.61676 3.6347L3.53801 3.38307L3.74051 3.2282H3.48851L3.41314 2.9762L3.33551 3.2282H3.08539L3.28826 3.38307L3.20951 3.6347Z" fill="white"/>
<path d="M4.69638 3.6347L4.89963 3.47832L5.10325 3.6347L5.0245 3.38307L5.22738 3.2282H4.97725L4.89963 2.9762L4.822 3.2282H4.5715L4.77438 3.38307L4.69638 3.6347Z" fill="white"/>
<path d="M6.17163 3.6347L6.37563 3.47832L6.57963 3.6347L6.49976 3.38307L6.70301 3.2282H6.45288L6.37526 2.9762L6.29838 3.2282H6.04788L6.25076 3.38307L6.17163 3.6347Z" fill="white"/>
<path d="M7.65474 3.6347L7.85686 3.47832L8.06049 3.6347L7.98099 3.38307L8.18424 3.2282H7.93449L7.85649 2.9762L7.77961 3.2282H7.52911L7.73199 3.38307L7.65474 3.6347Z" fill="white"/>
<path d="M8.48987 2.97626L8.69349 2.81951L8.89749 2.97626L8.81837 2.72426L9.02087 2.57013L8.77224 2.57088L8.69312 2.31738L8.61587 2.57088L8.36349 2.57013L8.56862 2.72426L8.48987 2.97626Z" fill="white"/>
<path d="M1.12412 4.29327L1.32812 4.13689L1.53175 4.29327L1.45263 4.04202L1.6555 3.88752L1.405 3.88827L1.32737 3.63477L1.25087 3.88827L1 3.88752L1.20287 4.04202L1.12412 4.29327Z" fill="white"/>
<path d="M2.47226 4.29327L2.67589 4.13689L2.87989 4.29327L2.80076 4.04202L3.00326 3.88752L2.75351 3.88827L2.67551 3.63477L2.59864 3.88827L2.34851 3.88752L2.55064 4.04202L2.47226 4.29327Z" fill="white"/>
<path d="M3.95912 4.29327L4.16274 4.13689L4.36637 4.29327L4.28762 4.04202L4.49012 3.88752L4.23849 3.88827L4.16237 3.63477L4.08512 3.88827L3.83499 3.88752L4.03787 4.04202L3.95912 4.29327Z" fill="white"/>
<path d="M5.43513 4.29327L5.63838 4.13689L5.84238 4.29327L5.76475 4.04202L5.96613 3.88752L5.71563 3.88827L5.63838 3.63477L5.56113 3.88827L5.311 3.88752L5.5135 4.04202L5.43513 4.29327Z" fill="white"/>
<path d="M6.91599 4.29327L7.11999 4.13689L7.32361 4.29327L7.24599 4.04202L7.44736 3.88752L7.19686 3.88827L7.11961 3.63477L7.04274 3.88827L6.79224 3.88752L6.99474 4.04202L6.91599 4.29327Z" fill="white"/>
<path d="M1.8415 4.95171L2.04513 4.79571L2.24875 4.95171L2.17038 4.70196L2.3725 4.54671H2.122L2.04475 4.29321L1.96788 4.54671H1.71738L1.92025 4.70196L1.8415 4.95171Z" fill="white"/>
<path d="M3.18962 4.95171L3.39325 4.79571L3.59687 4.95171L3.51812 4.70196L3.72062 4.54671H3.46975L3.39287 4.29321L3.31562 4.54671H3.06512L3.26837 4.70196L3.18962 4.95171Z" fill="white"/>
<path d="M4.67688 4.95171L4.87975 4.79571L5.08375 4.95171L5.0035 4.70196L5.2075 4.54671H4.95738L4.87975 4.29321L4.8025 4.54671H4.552L4.75488 4.70196L4.67688 4.95171Z" fill="white"/>
<path d="M6.15098 4.95171L6.35574 4.79571L6.55974 4.95171L6.48099 4.70196L6.68311 4.54671H6.43299L6.35536 4.29321L6.27849 4.54671H6.02798L6.23086 4.70196L6.15098 4.95171Z" fill="white"/>
<path d="M7.63225 4.95171L7.837 4.79571L8.041 4.95171L7.96187 4.70196L8.16512 4.54671H7.915L7.837 4.29321L7.75975 4.54671H7.50925L7.71212 4.70196L7.63225 4.95171Z" fill="white"/>
<path d="M8.46801 4.29327L8.67363 4.13689L8.87726 4.29327L8.79851 4.04202L9.00138 3.88752L8.74976 3.88827L8.67326 3.63477L8.59601 3.88827L8.34476 3.88752L8.54876 4.04202L8.46801 4.29327Z" fill="white"/>
<path d="M1.12412 5.61066L1.32812 5.45578L1.53175 5.61066L1.45263 5.35903L1.6555 5.20453L1.405 5.20528L1.32737 4.95178L1.25087 5.20528L1 5.20453L1.20287 5.35903L1.12412 5.61066Z" fill="white"/>
<path d="M2.47226 5.61066L2.67589 5.45578L2.87989 5.61066L2.80076 5.35903L3.00326 5.20453L2.75351 5.20528L2.67551 4.95178L2.59864 5.20528L2.34851 5.20453L2.55064 5.35903L2.47226 5.61066Z" fill="white"/>
<path d="M3.95912 5.61066L4.16274 5.45578L4.36637 5.61066L4.28762 5.35903L4.49012 5.20453L4.23849 5.20528L4.16237 4.95178L4.08512 5.20528L3.83499 5.20453L4.03787 5.35903L3.95912 5.61066Z" fill="white"/>
<path d="M5.43513 5.61066L5.63838 5.45578L5.84238 5.61066L5.76475 5.35903L5.96613 5.20453L5.71563 5.20528L5.63838 4.95178L5.56113 5.20528L5.311 5.20453L5.5135 5.35903L5.43513 5.61066Z" fill="white"/>
<path d="M6.91599 5.61066L7.11999 5.45578L7.32361 5.61066L7.24599 5.35903L7.44736 5.20453L7.19686 5.20528L7.11961 4.95178L7.04274 5.20528L6.79224 5.20453L6.99474 5.35903L6.91599 5.61066Z" fill="white"/>
<path d="M1.8415 6.26947L2.04513 6.11272L2.24875 6.26947L2.17038 6.01747L2.3725 5.86447H2.122L2.04475 5.6106L1.96788 5.86447H1.71738L1.92025 6.01747L1.8415 6.26947Z" fill="white"/>
<path d="M3.18962 6.26947L3.39325 6.11272L3.59687 6.26947L3.51812 6.01747L3.72062 5.86447H3.46975L3.39287 5.6106L3.31562 5.86447H3.06512L3.26837 6.01747L3.18962 6.26947Z" fill="white"/>
<path d="M4.67688 6.26947L4.87975 6.11272L5.08375 6.26947L5.0035 6.01747L5.2075 5.86447H4.95738L4.87975 5.6106L4.8025 5.86447H4.552L4.75488 6.01747L4.67688 6.26947Z" fill="white"/>
<path d="M6.15098 6.26947L6.35574 6.11272L6.55974 6.26947L6.48099 6.01747L6.68311 5.86447H6.43299L6.35536 5.6106L6.27849 5.86447H6.02798L6.23086 6.01747L6.15098 6.26947Z" fill="white"/>
<path d="M7.63225 6.26947L7.837 6.11272L8.041 6.26947L7.96187 6.01747L8.16512 5.86447H7.915L7.837 5.6106L7.75975 5.86447H7.50925L7.71212 6.01747L7.63225 6.26947Z" fill="white"/>
<path d="M8.46801 5.61066L8.67363 5.45578L8.87726 5.61066L8.79851 5.35903L9.00138 5.20453L8.74976 5.20528L8.67326 4.95178L8.59601 5.20528L8.34476 5.20453L8.54876 5.35903L8.46801 5.61066Z" fill="white"/>
</svg>
