<svg width="24" height="16" viewBox="0 0 24 16" fill="none" xmlns="http://www.w3.org/2000/svg">
<rect width="24" height="5.33333" fill="#EC1C24"/>
<rect y="5.33337" width="24" height="5.33333" fill="white"/>
<path fill-rule="evenodd" clip-rule="evenodd" d="M13.14 9.99801C12.2397 9.73219 11.282 9.73051 10.3807 9.99317C10.3497 10.0019 10.3378 9.99543 10.3297 9.96445C10.3179 9.91411 10.3034 9.86446 10.2862 9.81569C10.2755 9.78278 10.2839 9.77213 10.3162 9.76213C10.5259 9.70203 10.7392 9.65493 10.9548 9.62112C11.698 9.50543 12.4575 9.55322 13.1803 9.76116C13.2181 9.77213 13.2265 9.78536 13.2132 9.82086C13.1948 9.87119 13.1813 9.92347 13.1668 9.9751C13.1616 9.99349 13.1561 10.0048 13.14 9.99801Z" fill="#C89D00"/>
<path fill-rule="evenodd" clip-rule="evenodd" d="M9.73032 7.69079C9.75581 7.61206 9.77517 7.54397 9.80002 7.47815C9.81292 7.44394 9.80582 7.4262 9.77581 7.40716C9.71756 7.3687 9.66271 7.3253 9.61189 7.27744C9.67546 7.27744 9.74032 7.27357 9.80324 7.27905C9.8539 7.28357 9.87326 7.26292 9.8852 7.21839C9.90134 7.15676 9.92328 7.09674 9.9478 7.02026C9.9733 7.09803 9.99556 7.1616 10.0133 7.2271C10.0243 7.24508 10.0443 7.28099 10.0869 7.27809C10.1521 7.27421 10.2176 7.27712 10.2982 7.27712C10.234 7.32487 10.1817 7.36585 10.1262 7.40167C10.092 7.42394 10.0814 7.44523 10.0975 7.48589C10.1224 7.54785 10.1401 7.61303 10.165 7.69015C10.0943 7.63949 10.0359 7.59851 9.97878 7.55462C9.95587 7.5372 9.93974 7.53784 9.91586 7.55559C9.85874 7.60012 9.79969 7.6411 9.73032 7.69079Z" fill="#C89D00"/>
<path fill-rule="evenodd" clip-rule="evenodd" d="M13.2157 7.27945C13.2841 7.27945 13.3532 7.27686 13.4216 7.28041C13.4584 7.28267 13.4729 7.2688 13.4826 7.23492C13.5016 7.16877 13.5245 7.10423 13.5506 7.02356C13.5777 7.10423 13.6016 7.17102 13.6203 7.23911C13.6294 7.27267 13.6462 7.28106 13.6787 7.28041C13.7475 7.27848 13.8162 7.27945 13.9011 7.27945C13.8311 7.33011 13.7749 7.37496 13.7159 7.41433C13.69 7.43143 13.6875 7.44756 13.6968 7.47467C13.7207 7.54211 13.7417 7.61084 13.7685 7.6928C13.6807 7.64408 13.6426 7.60535 13.589 7.56179C13.5594 7.53791 13.54 7.5405 13.5122 7.56212C13.4584 7.60471 13.4012 7.64343 13.3338 7.69216C13.3596 7.61084 13.3803 7.54179 13.4045 7.47435C13.4148 7.44627 13.4109 7.43078 13.3858 7.414C13.327 7.37399 13.2706 7.33108 13.2134 7.2888L13.2157 7.27945Z" fill="#C89D00"/>
<path fill-rule="evenodd" clip-rule="evenodd" d="M11.5375 6.63342C11.5614 6.56147 11.5823 6.49112 11.6081 6.42078C11.6175 6.39432 11.6017 6.38657 11.5868 6.3756L11.399 6.23911C11.481 6.23911 11.5475 6.23588 11.614 6.24008C11.6578 6.24362 11.674 6.22717 11.6853 6.18716C11.7021 6.12244 11.7258 6.0597 11.7559 6C11.7779 6.06583 11.8021 6.13133 11.8201 6.19813C11.8295 6.23136 11.8456 6.24104 11.8782 6.24008C11.947 6.23782 12.0163 6.23911 12.1012 6.23911C12.0357 6.28622 11.9841 6.3272 11.9299 6.36366C11.896 6.3856 11.8837 6.40561 11.9002 6.44691C11.926 6.50855 11.9424 6.57405 11.9676 6.65182C11.8979 6.60116 11.8385 6.56017 11.7824 6.51726C11.7592 6.49951 11.7427 6.49854 11.7195 6.51661C11.6757 6.55089 11.6307 6.58361 11.5846 6.61471C11.5707 6.62439 11.5594 6.64052 11.5375 6.63342Z" fill="#C89D00"/>
<path fill-rule="evenodd" clip-rule="evenodd" d="M9.33688 8.25003C9.40754 8.25003 9.47821 8.31777 9.54856 8.25035C9.5776 8.321 9.59147 8.31229 9.59986 8.28357C9.61987 8.21613 9.6431 8.14933 9.67602 8.07996C9.69602 8.13901 9.71796 8.19741 9.73345 8.25775C9.74539 8.30486 9.76604 8.32552 9.81832 8.25035C9.87995 8.31519 9.94255 8.25003 10.0219 8.25003C9.95901 8.36553 9.90899 8.40651 9.85478 8.43975C9.81445 8.46524 9.80541 8.49008 9.82445 8.53558C9.84897 8.59431 9.86382 8.65627 9.88802 8.7321C9.81929 8.68273 9.76249 8.644 9.70828 8.60109C9.67989 8.57818 9.65924 8.57979 9.63213 8.6027C9.59244 8.63529 9.54952 8.66401 9.50629 8.69434C9.49273 8.70402 9.48144 8.71951 9.45821 8.71403C9.4795 8.64852 9.50048 8.58237 9.52436 8.51816C9.5363 8.48653 9.52887 8.46911 9.50112 8.45039C9.44401 8.41232 9.38915 8.37037 9.33333 8.33003C9.33526 8.32616 9.33559 8.32229 9.33688 8.25003Z" fill="#C89D00"/>
<path fill-rule="evenodd" clip-rule="evenodd" d="M13.6186 8.71339C13.6432 8.6395 13.6657 8.56786 13.6909 8.49623C13.6999 8.47138 13.6799 8.46557 13.6677 8.45621C13.6093 8.4133 13.5522 8.37102 13.4799 8.25004C13.5622 8.25004 13.629 8.31746 13.6951 8.25036C13.7345 8.3223 13.7538 8.3123 13.7642 8.27164C13.7824 8.2059 13.8068 8.14204 13.8371 8.08093C13.8587 8.14676 13.8832 8.21194 13.9013 8.27906C13.911 8.31262 13.9278 8.32101 13.96 8.25036C14.0288 8.31778 14.0972 8.25004 14.1833 8.25004C14.1143 8.36909 14.0588 8.41168 14.0016 8.4504C13.9742 8.4688 13.9668 8.48622 13.9781 8.51784C14.002 8.58399 14.0233 8.65143 14.0488 8.73307C13.9781 8.68177 13.9197 8.64014 13.8626 8.59722C13.8393 8.57883 13.8226 8.57883 13.7997 8.59722C13.7558 8.63111 13.7109 8.66305 13.6657 8.69532C13.6522 8.70468 13.6409 8.72113 13.6186 8.71339Z" fill="#C89D00"/>
<path fill-rule="evenodd" clip-rule="evenodd" d="M10.4985 6.9119C10.5175 6.85478 10.532 6.79605 10.5556 6.7412C10.5746 6.69344 10.5707 6.66343 10.5227 6.636C10.4704 6.60503 10.4223 6.56437 10.3594 6.51855C10.4426 6.51855 10.5097 6.51661 10.5762 6.51951C10.6127 6.52081 10.6311 6.51113 10.642 6.4724C10.6601 6.40722 10.6837 6.34269 10.7101 6.26331C10.7369 6.34494 10.7608 6.41303 10.7814 6.48144C10.7898 6.51016 10.8027 6.51984 10.8321 6.51951C10.9028 6.51661 10.9728 6.51855 11.0477 6.52823C10.9928 6.56824 10.9379 6.60954 10.8824 6.64762C10.8521 6.6673 10.845 6.68602 10.8573 6.7199C10.8818 6.78347 10.9005 6.8493 10.9118 6.92061C10.8592 6.88156 10.8044 6.8451 10.7534 6.80444C10.723 6.78024 10.6998 6.77766 10.6675 6.80347C10.6172 6.84445 10.5623 6.88124 10.5097 6.91964C10.5065 6.91641 10.5026 6.91448 10.4985 6.9119Z" fill="#C89D00"/>
<path fill-rule="evenodd" clip-rule="evenodd" d="M12.4567 6.51818C12.5273 6.51818 12.597 6.51721 12.6674 6.51915C12.6971 6.51947 12.711 6.51076 12.719 6.48172C12.7393 6.41266 12.7636 6.34458 12.7903 6.26294C12.8174 6.34522 12.8413 6.41331 12.862 6.48172C12.8704 6.51044 12.8842 6.51947 12.9133 6.51915C12.985 6.51583 13.0569 6.51875 13.1282 6.52786C13.0714 6.56916 13.0156 6.61144 12.9581 6.65113C12.9317 6.66823 12.9265 6.68533 12.9368 6.71502C12.9607 6.77988 12.9807 6.8457 12.992 6.91992C12.9407 6.88217 12.8871 6.84667 12.8378 6.80634C12.8039 6.77826 12.7777 6.77729 12.7439 6.80601C12.6933 6.84795 12.6381 6.884 12.5793 6.91347C12.5996 6.85151 12.6177 6.78697 12.6409 6.72566C12.6545 6.68791 12.649 6.66661 12.6145 6.64499C12.5596 6.6095 12.508 6.56852 12.4544 6.53012L12.4567 6.51818Z" fill="#C89D00"/>
<path fill-rule="evenodd" clip-rule="evenodd" d="M10.858 9.55883C10.7654 9.55561 10.6899 9.51237 10.6221 9.45299C10.6057 9.4388 10.6066 9.43008 10.6244 9.41879C10.6673 9.39104 10.7322 9.39039 10.7557 9.35458C10.7786 9.3194 10.7661 9.26068 10.7874 9.2155C10.8206 9.14258 10.8306 9.14096 10.888 9.19937C10.8948 9.20711 10.9019 9.21453 10.9084 9.2226C10.9781 9.30779 10.9781 9.30779 11.0878 9.32908C11.1413 9.33876 11.1429 9.34296 11.1149 9.38975C11.0561 9.48591 10.9787 9.55496 10.858 9.55883Z" fill="#C89D00"/>
<path fill-rule="evenodd" clip-rule="evenodd" d="M11.7557 9.48597C11.6428 9.48145 11.564 9.42111 11.4966 9.33882C11.4827 9.32108 11.4888 9.31269 11.5079 9.30559C11.5424 9.293 11.5763 9.27945 11.6131 9.27719C11.6424 9.27687 11.6547 9.26783 11.6583 9.23589C11.6634 9.18265 11.6902 9.13876 11.725 9.0981C11.7425 9.07745 11.7557 9.07487 11.7738 9.09746C11.8077 9.13973 11.8367 9.18458 11.848 9.23847C11.8525 9.26009 11.8615 9.26977 11.8845 9.27171C11.9241 9.27558 11.9632 9.28429 12 9.30204C12.0171 9.31075 12.0229 9.31914 12.0084 9.33721C11.9441 9.4224 11.8654 9.48113 11.7557 9.48597Z" fill="#C89D00"/>
<path fill-rule="evenodd" clip-rule="evenodd" d="M12.6722 9.55885C12.5425 9.5582 12.4128 9.46592 12.3776 9.36782C12.3695 9.3462 12.3776 9.34233 12.3969 9.33813C12.434 9.32947 12.4722 9.32643 12.5102 9.3291C12.5363 9.33103 12.5457 9.32329 12.5534 9.2978C12.568 9.2423 12.6051 9.20164 12.6486 9.1655C12.6657 9.15001 12.677 9.15162 12.689 9.17228C12.7138 9.21551 12.74 9.26037 12.7387 9.31167C12.738 9.35136 12.7551 9.36492 12.7903 9.37266C12.8221 9.38028 12.8521 9.39421 12.8784 9.41364C12.8971 9.42623 12.9003 9.43687 12.8823 9.45398C12.8161 9.51625 12.7403 9.55723 12.6722 9.55885Z" fill="#C89D00"/>
<path fill-rule="evenodd" clip-rule="evenodd" d="M13.1484 9.09028C12.9674 9.03736 12.8445 8.91797 12.7677 8.74694L12.748 8.76405C12.4108 9.03994 11.9142 8.86924 11.8322 8.44136C11.7987 8.26518 11.8161 8.0819 11.8267 7.90216C11.8316 7.82278 11.9142 7.76341 11.9948 7.75857C12.0662 7.75502 12.1191 7.78923 12.1642 7.84085C12.2291 7.67048 12.1578 7.46299 11.9997 7.35231C11.9193 7.29666 11.8226 7.26945 11.725 7.275C11.6273 7.28055 11.5344 7.31855 11.4608 7.38297C11.3091 7.51237 11.2827 7.73437 11.3375 7.83989C11.3998 7.7647 11.4773 7.73566 11.5686 7.77438C11.6586 7.81343 11.6822 7.89087 11.4502 7.9838C11.6764 8.10674 11.6796 8.23001 11.6796 8.35295C11.6776 8.62787 11.4476 8.87343 11.1743 8.89441C11.0949 8.90233 11.0149 8.89347 10.9392 8.86839C10.8635 8.84332 10.794 8.8026 10.7351 8.74888C10.585 9.08866 10.1836 9.22483 9.85063 9.01477C9.84643 9.14061 9.94356 9.27775 10.0733 9.32971C10.3405 9.4349 10.6738 9.26969 10.7522 8.99315C10.759 8.97088 10.7648 8.94797 10.7725 8.91861C10.7903 8.94217 10.8022 8.95991 10.8148 8.97766C10.8835 9.06704 10.9668 9.13674 11.0771 9.16417C11.2788 9.21386 11.4408 9.13997 11.5766 8.99541C11.6576 8.91022 11.708 8.80696 11.747 8.69402C11.7661 8.70919 11.7667 8.72758 11.7722 8.74275C11.808 8.83762 11.8587 8.9241 11.9268 8.99896C12.1642 9.25872 12.5053 9.23677 12.7064 8.94991C12.7128 8.9412 12.7138 8.92668 12.7296 8.92764C12.7322 8.93184 12.7354 8.93442 12.736 8.93733C12.7835 9.24161 13.1065 9.40296 13.3527 9.35197C13.5208 9.31809 13.6505 9.17482 13.6515 9.01154C13.4943 9.11157 13.3256 9.14223 13.1484 9.0906V9.09028ZM11.7719 7.76599C11.7554 7.78729 11.7486 7.7931 11.729 7.76793C11.6994 7.72696 11.6593 7.69472 11.613 7.67462C11.5667 7.65452 11.5158 7.64729 11.4656 7.6537C11.434 7.65628 11.436 7.64176 11.4405 7.61982C11.4685 7.48752 11.5999 7.38329 11.7448 7.382C11.8948 7.38039 12.0271 7.48042 12.06 7.61885C12.072 7.66951 12.0394 7.65112 12.0165 7.6508C11.9695 7.6491 11.9227 7.65868 11.8802 7.67872C11.8376 7.69876 11.8005 7.72868 11.7719 7.76599Z" fill="#C89D00"/>
<rect y="10.6666" width="24" height="5.33333" fill="#128807"/>
</svg>
