<svg width="64" height="42" viewBox="0 0 64 42" fill="none" xmlns="http://www.w3.org/2000/svg">
<path d="M0 5.25C0 2.35051 2.38781 0 5.33333 0H58.6667C61.6122 0 64 2.35051 64 5.25V36.75C64 39.6495 61.6122 42 58.6667 42H5.33333C2.38781 42 0 39.6495 0 36.75V5.25Z" fill="white"/>
<path d="M38.6678 8.5673L24.9059 8.6123L25.3334 33.4331L39.0953 33.3881L38.6678 8.5673Z" fill="#FF5F00"/>
<path d="M25.8089 21.0745C25.7216 16.026 28.0158 11.5404 31.6109 8.63118C28.8954 6.53271 25.4917 5.27062 21.8025 5.28263C13.0627 5.31108 6.11403 12.402 6.26512 21.1381C6.41621 29.8742 13.6094 36.919 22.3492 36.8906C26.0384 36.8786 29.3981 35.5945 32.0407 33.4786C28.3461 30.6369 25.8963 26.1229 25.8089 21.0745Z" fill="#EB001B"/>
<path d="M57.7361 20.8626C57.8872 29.5987 50.9385 36.6896 42.1987 36.7181C38.5095 36.7301 35.1058 35.468 32.3903 33.3695C36.0294 30.4601 38.2796 25.9747 38.1923 20.9262C38.105 15.8777 35.6559 11.4077 31.9606 8.52215C34.6032 6.40623 37.9629 5.12211 41.6521 5.1101C50.3919 5.08164 57.5858 12.1704 57.7361 20.8626Z" fill="#F79E1B"/>
</svg>
