<svg width="64" height="42" viewBox="0 0 64 42" fill="none" xmlns="http://www.w3.org/2000/svg">
<path d="M0 5.25C0 2.35051 2.38781 0 5.33333 0H58.6667C61.6122 0 64 2.35051 64 5.25V36.75C64 39.6495 61.6122 42 58.6667 42H5.33333C2.38781 42 0 39.6495 0 36.75V5.25Z" fill="white"/>
<path d="M14.3611 15.1166C13.6926 14.6642 12.8203 14.4375 11.7441 14.4375H7.57784C7.24794 14.4375 7.06567 14.5999 7.03105 14.9244L5.33863 25.3822C5.32104 25.4849 5.34714 25.5789 5.4167 25.6643C5.48587 25.7498 5.57286 25.7924 5.67705 25.7924H7.656C8.0031 25.7924 8.19388 25.6303 8.2289 25.3054L8.69753 22.486C8.71464 22.3494 8.77569 22.2383 8.87987 22.1527C8.98398 22.0674 9.11419 22.0115 9.27043 21.9859C9.42666 21.9606 9.57399 21.9477 9.71311 21.9477C9.85184 21.9477 10.0167 21.9564 10.2079 21.9734C10.3987 21.9904 10.5203 21.9988 10.5725 21.9988C12.0653 21.9988 13.237 21.5847 14.0878 20.7557C14.9381 19.9271 15.3638 18.778 15.3638 17.3081C15.3638 16.2999 15.0292 15.5695 14.3611 15.1164V15.1166ZM12.213 18.2568C12.1259 18.855 11.9005 19.2478 11.536 19.4358C11.1714 19.6241 10.6506 19.7178 9.97369 19.7178L9.11435 19.7433L9.55711 17.0006C9.59166 16.8128 9.70444 16.7188 9.89553 16.7188H10.3904C11.0845 16.7188 11.5882 16.8173 11.9007 17.0135C12.213 17.2101 12.3172 17.6247 12.213 18.2568V18.2568Z" fill="#003087"/>
<path d="M58.3277 14.4375H56.4011C56.2096 14.4375 56.0969 14.5315 56.0625 14.7196L54.3699 25.3827L54.3438 25.4339C54.3438 25.5198 54.3785 25.6006 54.4482 25.6775C54.5172 25.7543 54.6044 25.7928 54.7084 25.7928H56.4273C56.7565 25.7928 56.9389 25.6307 56.9741 25.3058L58.6666 14.8222V14.7967C58.6665 14.5574 58.5533 14.4378 58.3277 14.4378V14.4375Z" fill="#009CDE"/>
<path d="M35.0496 18.5646C35.0496 18.4794 35.0147 18.3981 34.9457 18.3214C34.876 18.2445 34.7979 18.2058 34.7113 18.2058H32.7063C32.515 18.2058 32.3587 18.2917 32.2374 18.4621L29.4773 22.4609L28.3316 18.616C28.2444 18.3428 28.0537 18.2058 27.7588 18.2058H25.8055C25.7186 18.2058 25.6405 18.2444 25.5715 18.3214C25.5018 18.3981 25.4673 18.4796 25.4673 18.5646C25.4673 18.599 25.6366 19.103 25.975 20.077C26.3134 21.0513 26.678 22.1023 27.0686 23.2301C27.4592 24.3578 27.6631 24.9562 27.4505 25.024C26.2569 26.9382 25.5454 27.9634 25.5454 28.0999C25.5454 28.3222 25.6581 28.4332 25.8839 28.4332H27.8889C28.0798 28.4332 28.236 28.3479 28.3577 28.177L34.9978 18.744C35.0323 18.7101 35.0496 18.6506 35.0496 18.5646V18.5646Z" fill="#003087"/>
<path d="M53.7191 18.2058H51.7401C51.4968 18.2058 51.3498 18.4878 51.2977 19.0519C50.8458 18.3685 50.0218 18.0264 48.8237 18.0264C47.5739 18.0264 46.5105 18.4878 45.6341 19.4106C44.7573 20.3334 44.3192 21.4188 44.3192 22.6661C44.3192 23.6745 44.6186 24.4776 45.2173 25.0755C45.8162 25.674 46.619 25.9726 47.6262 25.9726C48.1295 25.9726 48.6416 25.8699 49.1624 25.665C49.6831 25.46 50.0907 25.1867 50.3864 24.8448C50.3864 24.862 50.3686 24.9386 50.3343 25.0752C50.2992 25.2122 50.2821 25.3151 50.2821 25.3828C50.2821 25.6566 50.3947 25.7929 50.6207 25.7929H52.4175C52.747 25.7929 52.9381 25.6309 52.99 25.306L54.0578 18.6159C54.0749 18.5132 54.049 18.4194 53.9796 18.3339C53.9098 18.2486 53.8233 18.2058 53.7191 18.2058V18.2058ZM50.3211 23.2556C49.8784 23.6828 49.3446 23.8963 48.7197 23.8963C48.216 23.8963 47.8085 23.7598 47.4958 23.4863C47.1832 23.2135 47.027 22.8375 47.027 22.3584C47.027 21.7266 47.244 21.1922 47.6782 20.7565C48.1115 20.2507 48.6502 20.1029 49.2925 20.1029C49.7782 20.1029 50.1818 20.2438 50.5033 20.5257C50.8241 20.8077 50.9852 21.1965 50.9852 21.6922C50.9851 22.3073 50.7637 22.8286 50.3211 23.2556Z" fill="#009CDE"/>
<path d="M24.1385 18.2058H22.1595C21.9161 18.2058 21.7689 18.4878 21.7167 19.0519C21.248 18.3685 20.4234 18.0264 19.243 18.0264C17.9931 18.0264 16.9297 18.4878 16.0531 19.4106C15.1764 20.3334 14.7382 21.4188 14.7382 22.6661C14.7382 23.6745 15.0377 24.4776 15.6366 25.0755C16.2356 25.674 17.0382 25.9726 18.0452 25.9726C18.531 25.9726 19.0348 25.8699 19.5554 25.665C20.0762 25.46 20.4929 25.1867 20.8053 24.8448C20.7357 25.0497 20.7011 25.2292 20.7011 25.3828C20.7011 25.6566 20.8139 25.7929 21.0396 25.7929H22.8363C23.1659 25.7929 23.3571 25.6309 23.4092 25.306L24.4768 18.6159C24.4939 18.5132 24.4679 18.4194 24.3987 18.3339C24.3292 18.2486 24.2425 18.2058 24.1385 18.2058V18.2058ZM20.7404 23.2683C20.2976 23.6875 19.7549 23.8963 19.113 23.8963C18.6093 23.8963 18.2057 23.7598 17.9021 23.4863C17.5981 23.2135 17.4464 22.8375 17.4464 22.3584C17.4464 21.7266 17.6633 21.1922 18.0974 20.7565C18.5311 20.2507 19.0693 20.1028 19.7118 20.1028C20.1977 20.1028 20.6013 20.2438 20.9227 20.5257C21.2436 20.8077 21.4044 21.1965 21.4044 21.6922C21.4043 22.3244 21.1831 22.8501 20.7404 23.2683V23.2683Z" fill="#003087"/>
<path d="M43.942 15.1166C43.2735 14.6642 42.4015 14.4375 41.3251 14.4375H37.1848C36.8375 14.4375 36.6464 14.5999 36.612 14.9244L34.9194 25.3822C34.9018 25.4849 34.9279 25.5789 34.9975 25.6643C35.0664 25.7498 35.1536 25.7924 35.2578 25.7924H37.3929C37.6012 25.7924 37.74 25.6814 37.8096 25.4592L38.2783 22.486C38.2956 22.3494 38.3563 22.2383 38.4607 22.1527C38.5649 22.0674 38.6949 22.0115 38.8513 21.9859C39.0074 21.9606 39.1547 21.9477 39.2939 21.9477C39.4327 21.9477 39.5975 21.9564 39.7886 21.9734C39.9794 21.9904 40.1014 21.9988 40.1531 21.9988C41.6462 21.9988 42.8177 21.5847 43.6685 20.7557C44.5191 19.9271 44.9444 18.778 44.9444 17.3081C44.9445 16.2999 44.6101 15.5694 43.942 15.1164V15.1166ZM41.273 19.3332C40.8911 19.5895 40.3181 19.7176 39.5545 19.7176L38.7211 19.7433L39.1638 17.0005C39.1982 16.8128 39.311 16.7186 39.5022 16.7186H39.9708C40.3527 16.7186 40.6564 16.7357 40.8825 16.7698C41.1077 16.8041 41.3251 16.9108 41.5334 17.0901C41.7418 17.2696 41.8458 17.5303 41.8458 17.8719C41.8458 18.5899 41.6547 19.0767 41.273 19.3332Z" fill="#009CDE"/>
</svg>
