<svg width="64" height="42" viewBox="0 0 64 42" fill="none" xmlns="http://www.w3.org/2000/svg">
<path d="M0 5.25C0 2.35051 2.38781 0 5.33333 0H58.6667C61.6122 0 64 2.35051 64 5.25V36.75C64 39.6495 61.6122 42 58.6667 42H5.33333C2.38781 42 0 39.6495 0 36.75V5.25Z" fill="white"/>
<path d="M55.0795 13.1707H51.7266C50.713 13.1707 49.9333 13.4777 49.4654 14.4755L43.0717 28.8285H47.5941C47.5941 28.8285 48.3738 26.9097 48.5297 26.4492C48.9976 26.4492 53.442 26.4492 54.0658 26.4492C54.2218 26.9864 54.6116 28.7518 54.6116 28.7518H58.6662L55.0795 13.1707ZM49.7773 23.2255C50.1672 22.3044 51.4927 18.8505 51.4927 18.8505C51.4927 18.9272 51.8826 17.9294 52.0385 17.3921L52.3504 18.7737C52.3504 18.7737 53.2081 22.5347 53.3641 23.3022H49.7773V23.2255Z" fill="#3362AB"/>
<path d="M43.3845 23.6862C43.3845 26.9099 40.4215 29.059 35.8211 29.059C33.8718 29.059 32.0005 28.6752 30.9868 28.2147L31.6106 24.684L32.1564 24.9142C33.5599 25.5283 34.4956 25.7585 36.211 25.7585C37.4585 25.7585 38.7841 25.298 38.7841 24.2234C38.7841 23.5327 38.2383 23.0721 36.5229 22.3046C34.8855 21.537 32.7022 20.309 32.7022 18.0831C32.7022 15.0129 35.7432 12.9406 40.0316 12.9406C41.6691 12.9406 43.0726 13.2476 43.9303 13.6313L43.3065 17.0085L42.9946 16.7015C42.2149 16.3945 41.2012 16.0875 39.7198 16.0875C38.0823 16.1642 37.3026 16.855 37.3026 17.4691C37.3026 18.1599 38.2383 18.6971 39.7198 19.3879C42.2149 20.5392 43.3845 21.8441 43.3845 23.6862Z" fill="#3362AB"/>
<path d="M5.33328 13.3245L5.41126 13.0175H12.1169C13.0526 13.0175 13.7543 13.3245 13.9883 14.3223L15.4697 21.2302C13.9883 17.546 10.5575 14.5525 5.33328 13.3245Z" fill="#F9B50B"/>
<path d="M24.9048 13.171L18.1212 28.7521H13.5208L9.62216 15.7039C12.4292 17.4692 14.7684 20.2324 15.6261 22.1513L16.0939 23.7631L20.3044 13.0942H24.9048V13.171Z" fill="#3362AB"/>
<path d="M26.6978 13.0942H30.9863L28.2573 28.7521H23.9688L26.6978 13.0942Z" fill="#3362AB"/>
</svg>
