<svg width="16" height="12" viewBox="0 0 16 12" fill="none" xmlns="http://www.w3.org/2000/svg">
<path d="M5.79861 3.81246C6.80538 3.81246 7.62153 2.99631 7.62153 1.98954C7.62153 0.982774 6.80538 0.166626 5.79861 0.166626C5.12388 0.166626 4.53476 0.533213 4.21957 1.07808H3.51997C2.76489 1.07808 2.15278 1.6902 2.15278 2.44527C2.15278 3.20035 2.76489 3.81246 3.51997 3.81246H5.79861Z" fill="#999999"/>
<path d="M13.6958 11.8333H2.1609C1.40733 11.8333 0.924529 11.0314 1.27712 10.3654L3.44558 6.26938C3.80442 5.59156 4.76128 5.55335 5.17303 6.20039L7.08739 9.20867C7.13677 9.28626 7.22236 9.33325 7.31433 9.33325C7.4629 9.33325 7.58333 9.21282 7.58333 9.06425V9.00696C7.58333 8.94782 7.56726 8.8898 7.53683 8.83909L6.63773 7.34058C6.45 7.02769 6.44759 6.63739 6.63144 6.32221L8.41574 3.26341C8.79483 2.61354 9.72877 2.59929 10.1275 3.23728L14.5438 10.3033C14.96 10.9693 14.4812 11.8333 13.6958 11.8333Z" fill="#999999"/>
</svg>
