<svg width="14" height="12" viewBox="0 0 14 12" fill="none" xmlns="http://www.w3.org/2000/svg">
<path d="M9.33335 0.166626H4.66669C4.1144 0.166626 3.66669 0.614341 3.66669 1.16663V2.66663H5.33335V1.83329H8.66669V2.66663H10.3334V1.16663C10.3334 0.614341 9.88564 0.166626 9.33335 0.166626Z" fill="#999999"/>
<path fill-rule="evenodd" clip-rule="evenodd" d="M0.333344 5.5C0.333344 4.39543 1.22877 3.5 2.33334 3.5H11.6667C12.7712 3.5 13.6667 4.39543 13.6667 5.5V9.83333C13.6667 10.9379 12.7712 11.8333 11.6667 11.8333H2.33334C1.22877 11.8333 0.333344 10.9379 0.333344 9.83333V5.5ZM11.4444 9.05556C11.4444 9.82262 10.7812 10.4444 9.96297 10.4444C9.14477 10.4444 8.48149 9.82262 8.48149 9.05556C8.48149 8.28849 9.14477 7.66667 9.96297 7.66667C10.7812 7.66667 11.4444 8.28849 11.4444 9.05556ZM4.43373 4.39788L1.81482 6.85311L3.38617 8.32625L6.00508 5.87101L4.43373 4.39788Z" fill="#999999"/>
</svg>
