<svg width="14" height="12" viewBox="0 0 14 12" fill="none" xmlns="http://www.w3.org/2000/svg">
<path d="M10.3333 10.537H11.6667V5.35181H7.66668V10.537H9.00001V6.64811H10.3333V10.537ZM1.00001 10.537V0.814774C1.00001 0.642875 1.07025 0.478016 1.19527 0.356464C1.2503 0.234913 1.48987 0.166626 1.66668 0.166626H11C11.1768 0.166626 11.3464 0.234913 11.4714 0.356464C11.5964 0.478016 11.6667 0.642875 11.6667 0.814774V4.05552H13V10.537H13.6667V11.8333H0.333344V10.537H1.00001ZM3.66668 5.35181V6.64811H5.00001V5.35181H3.66668ZM3.66668 7.9444V9.2407H5.00001V7.9444H3.66668ZM3.66668 2.75922V4.05552H5.00001V2.75922H3.66668Z" fill="#FFBA0F"/>
</svg>
