<svg width="20" height="20" viewBox="0 0 20 20" fill="none" xmlns="http://www.w3.org/2000/svg">
<path d="M13.6667 7.49996V7.99996H14.1667H15.8333C16.4764 7.99996 17 8.5236 17 9.16663V13.3333C17 13.9763 16.4764 14.5 15.8333 14.5H14.1667H13.6667V15C13.6667 16.1021 12.7689 17 11.6667 17H5C3.89781 17 3 16.1021 3 15V6.33329H13.6667V7.49996ZM4.16667 6.99996H3.66667V7.49996V15C3.66667 15.3536 3.80714 15.6927 4.05719 15.9428C4.30724 16.1928 4.64638 16.3333 5 16.3333H11.6667C12.0203 16.3333 12.3594 16.1928 12.6095 15.9428C12.8595 15.6927 13 15.3536 13 15V7.49996V6.99996H12.5H4.16667ZM13.6667 13.3333V13.8333H14.1667H15.835H16.3352L16.335 13.3331L16.3333 9.16643L16.3331 8.66663H15.8333H14.1667H13.6667V9.16663V13.3333ZM4.66667 2.16663H5.33333V3.66663H4.66667V2.16663ZM8 2.16663H8.66667V3.66663H8V2.16663ZM11.3333 2.16663H12V3.66663H11.3333V2.16663Z" stroke="#555555"/>
</svg>