<svg width="20" height="20" viewBox="0 0 20 20" fill="none" xmlns="http://www.w3.org/2000/svg">
<path d="M2.21015 10.2342L2.375 10.0853V9.86312V5.625C2.375 4.87302 2.99802 4.25 3.75 4.25H16.25C17.002 4.25 17.625 4.87302 17.625 5.625V9.86312V10.0853L17.7898 10.2342C18.0743 10.4911 18.25 10.8527 18.25 11.25V16.375H16.125V15.625V15.125H15.625H4.375H3.875V15.625V16.375H1.75V11.25C1.75 10.8527 1.92572 10.4911 2.21015 10.2342ZM16.875 9.875H17.375V9.375V5.625C17.375 5.00198 16.873 4.5 16.25 4.5H3.75C3.12698 4.5 2.625 5.00198 2.625 5.625V9.375V9.875H3.125H4.375H4.875V9.375V8.75C4.875 7.99802 5.49802 7.375 6.25 7.375H8.74884C9.08721 7.37669 9.41291 7.504 9.66274 7.73226L9.99856 8.03907L10.3357 7.73369C10.5823 7.51031 10.9041 7.375 11.25 7.375H13.75C14.502 7.375 15.125 7.99802 15.125 8.75V9.375V9.875H15.625H16.875ZM9.375 9.875H9.875V9.375V8.75C9.875 8.12698 9.37302 7.625 8.75 7.625H6.25C5.62698 7.625 5.125 8.12698 5.125 8.75V9.375V9.875H5.625H9.375ZM14.375 9.875H14.875V9.375V8.75C14.875 8.12698 14.373 7.625 13.75 7.625H11.25C10.627 7.625 10.125 8.12698 10.125 8.75V9.375V9.875H10.625H14.375ZM17.5 16.125H18V15.625V11.25C18 10.627 17.498 10.125 16.875 10.125H3.125C2.50198 10.125 2 10.627 2 11.25V15.625V16.125H2.5H3.125H3.625V15.625V14.875H16.375V15.625V16.125H16.875H17.5Z" fill="#555555" stroke="#555555"/>
</svg>