<svg width="20" height="20" viewBox="0 0 20 20" fill="none" xmlns="http://www.w3.org/2000/svg">
<path d="M10.0001 4.99996H7.50008C7.27907 4.99996 7.06711 5.08776 6.91083 5.24404C6.75455 5.40032 6.66675 5.61228 6.66675 5.83329V14.1666C6.66675 14.3876 6.75455 14.5996 6.91083 14.7559C7.06711 14.9122 7.27907 15 7.50008 15C7.7211 15 7.93306 14.9122 8.08934 14.7559C8.24562 14.5996 8.33342 14.3876 8.33342 14.1666V11.6666H10.0001C10.8841 11.6666 11.732 11.3154 12.3571 10.6903C12.9822 10.0652 13.3334 9.21735 13.3334 8.33329C13.3334 7.44924 12.9822 6.60139 12.3571 5.97627C11.732 5.35115 10.8841 4.99996 10.0001 4.99996ZM10.0001 9.99996H8.33342V6.66663H10.0001C10.4421 6.66663 10.866 6.84222 11.1786 7.15478C11.4912 7.46734 11.6667 7.89127 11.6667 8.33329C11.6667 8.77532 11.4912 9.19924 11.1786 9.5118C10.866 9.82436 10.4421 9.99996 10.0001 9.99996ZM15.8334 1.66663H4.16675C3.50371 1.66663 2.86782 1.93002 2.39898 2.39886C1.93014 2.8677 1.66675 3.50358 1.66675 4.16663V15.8333C1.66675 16.4963 1.93014 17.1322 2.39898 17.6011C2.86782 18.0699 3.50371 18.3333 4.16675 18.3333H15.8334C16.4965 18.3333 17.1323 18.0699 17.6012 17.6011C18.07 17.1322 18.3334 16.4963 18.3334 15.8333V4.16663C18.3334 3.50358 18.07 2.8677 17.6012 2.39886C17.1323 1.93002 16.4965 1.66663 15.8334 1.66663ZM16.6667 15.8333C16.6667 16.0543 16.579 16.2663 16.4227 16.4225C16.2664 16.5788 16.0544 16.6666 15.8334 16.6666H4.16675C3.94573 16.6666 3.73377 16.5788 3.57749 16.4225C3.42121 16.2663 3.33341 16.0543 3.33341 15.8333V4.16663C3.33341 3.94561 3.42121 3.73365 3.57749 3.57737C3.73377 3.42109 3.94573 3.33329 4.16675 3.33329H15.8334C16.0544 3.33329 16.2664 3.42109 16.4227 3.57737C16.579 3.73365 16.6667 3.94561 16.6667 4.16663V15.8333Z" fill="#555555"/>
</svg>