<svg width="15" height="13" viewBox="0 0 15 13" fill="none" xmlns="http://www.w3.org/2000/svg">
<path d="M10 2.6C10 3.28956 9.73661 3.95088 9.26777 4.43848C8.79893 4.92607 8.16304 5.2 7.5 5.2C6.83696 5.2 6.20107 4.92607 5.73223 4.43848C5.26339 3.95088 5 3.28956 5 2.6C5 1.91044 5.26339 1.24912 5.73223 0.761522C6.20107 0.273928 6.83696 0 7.5 0C8.16304 0 8.79893 0.273928 9.26777 0.761522C9.73661 1.24912 10 1.91044 10 2.6ZM14.1667 4.33333C14.1667 4.79304 13.9911 5.23392 13.6785 5.55898C13.3659 5.88405 12.942 6.06667 12.5 6.06667C12.058 6.06667 11.634 5.88405 11.3215 5.55898C11.0089 5.23392 10.8333 4.79304 10.8333 4.33333C10.8333 3.87362 11.0089 3.43274 11.3215 3.10768C11.634 2.78262 12.058 2.6 12.5 2.6C12.942 2.6 13.3659 2.78262 13.6785 3.10768C13.9911 3.43274 14.1667 3.87362 14.1667 4.33333ZM10.8333 10.4C10.8333 9.48058 10.4821 8.59882 9.85702 7.9487C9.2319 7.29857 8.38406 6.93333 7.5 6.93333C6.61594 6.93333 5.7681 7.29857 5.14298 7.9487C4.51786 8.59882 4.16667 9.48058 4.16667 10.4V13H10.8333V10.4ZM4.16667 4.33333C4.16667 4.79304 3.99107 5.23392 3.67851 5.55898C3.36595 5.88405 2.94203 6.06667 2.5 6.06667C2.05797 6.06667 1.63405 5.88405 1.32149 5.55898C1.00893 5.23392 0.833333 4.79304 0.833333 4.33333C0.833333 3.87362 1.00893 3.43274 1.32149 3.10768C1.63405 2.78262 2.05797 2.6 2.5 2.6C2.94203 2.6 3.36595 2.78262 3.67851 3.10768C3.99107 3.43274 4.16667 3.87362 4.16667 4.33333ZM12.5 13V10.4C12.5012 9.51885 12.2861 8.65196 11.875 7.88147C12.2445 7.78314 12.6306 7.77386 13.0041 7.85436C13.3775 7.93485 13.7283 8.10298 14.0297 8.34592C14.3312 8.58887 14.5753 8.9002 14.7434 9.25618C14.9116 9.61216 14.9993 10.0034 15 10.4V13H12.5ZM3.125 7.88147C2.71396 8.65197 2.49883 9.51885 2.5 10.4V13H2.21433e-07V10.4C-0.00016039 10.0031 0.0870528 9.61143 0.254956 9.25501C0.422859 8.89859 0.666995 8.58688 0.968653 8.34376C1.27031 8.10065 1.62148 7.93258 1.99526 7.85245C2.36903 7.77232 2.75549 7.78224 3.125 7.88147Z" fill="#333333"/>
</svg>
